<svg xmlns="http://www.w3.org/2000/svg" xmlns:xlink="http://www.w3.org/1999/xlink" viewBox="0 0 101.47 123.9"><defs><style>.cls-1{fill:url(#linear-gradient);}.cls-2{fill:url(#linear-gradient-2);}.cls-3{fill:#fff;}</style><linearGradient id="linear-gradient" y1="61.95" x2="101.47" y2="61.95" gradientUnits="userSpaceOnUse"><stop offset="0" stop-color="#f7941d"/><stop offset="1" stop-color="#f15a29"/></linearGradient><linearGradient id="linear-gradient-2" x1="71.39" y1="15.04" x2="101.47" y2="15.04" xlink:href="#linear-gradient"/></defs><g id="Layer_2" data-name="Layer 2"><g id="Layer_1-2" data-name="Layer 1"><path class="cls-1" d="M90.74,123.9h-80A10.77,10.77,0,0,1,0,113.17V10.74A10.77,10.77,0,0,1,10.74,0H71.39l30.08,30.63v82.54A10.76,10.76,0,0,1,90.74,123.9Z"/><path class="cls-2" d="M71.39,0V19.35A10.73,10.73,0,0,0,82.12,30.09h19.35"/><rect class="cls-3" x="27.12" y="40" width="55.16" height="12.83" rx="5.63"/><rect class="cls-3" x="17.19" y="63.89" width="50.97" height="12.83" rx="6.13"/><rect class="cls-3" x="27.12" y="87.71" width="55.16" height="12.83" rx="5.5"/></g></g></svg>