<?xml version="1.0" standalone="no"?>
<!DOCTYPE svg PUBLIC "-//W3C//DTD SVG 20010904//EN"
 "http://www.w3.org/TR/2001/REC-SVG-20010904/DTD/svg10.dtd">
<svg version="1.0" xmlns="http://www.w3.org/2000/svg"
 width="300.000000pt" height="287.000000pt" viewBox="0 0 300.000000 287.000000"
 preserveAspectRatio="xMidYMid meet">
<metadata>
Created by potrace 1.10, written by Peter Selinger 2001-2011
</metadata>
<g transform="translate(0.000000,287.000000) scale(0.100000,-0.100000)"
fill="#000000" stroke="none">
<path d="M1084 2849 c-17 -5 -50 -27 -73 -49 -42 -41 -86 -59 -106 -44 -7 5
-38 27 -70 49 l-58 40 -166 3 c-177 4 -256 -6 -329 -40 -49 -23 -202 -163
-202 -184 0 -8 -4 -14 -10 -14 -23 0 -28 -108 -36 -655 -4 -319 -8 -614 -9
-655 -1 -41 -3 -343 -6 -670 l-4 -595 595 -3 c327 -1 604 0 615 2 12 3 43 35
70 71 27 36 55 65 61 65 11 0 47 -24 109 -74 49 -40 129 -48 163 -16 12 11 22
27 22 34 0 9 18 15 53 18 31 3 80 18 122 38 49 23 70 29 73 20 8 -22 93 -145
114 -162 18 -16 50 -18 333 -18 272 0 316 2 329 16 9 8 16 20 16 25 0 20 83
226 146 361 35 76 68 157 74 182 5 24 25 88 45 141 38 106 45 177 19 213 -19
28 -29 28 -92 -4 -72 -36 -82 -26 -82 78 0 78 -1 81 -34 114 -51 51 -84 45
-163 -29 -17 -16 -36 -26 -42 -22 -6 3 -23 28 -36 55 -14 27 -34 54 -45 60
-33 18 -98 16 -116 -2 -25 -25 -34 -95 -22 -183 6 -44 11 -96 12 -115 1 -32
-1 -35 -24 -31 -14 2 -56 4 -95 5 -70 1 -70 1 -130 -49 -33 -27 -81 -61 -107
-74 -39 -21 -49 -23 -62 -12 -22 18 -20 32 9 87 14 26 25 61 25 79 0 21 12 48
36 79 36 48 36 48 29 122 -6 70 -5 76 25 129 17 30 35 57 40 60 18 11 29 79
21 123 -5 24 -20 55 -34 70 -15 15 -33 47 -41 70 -9 24 -25 56 -36 72 -24 34
-25 44 -4 61 8 7 25 31 36 53 19 37 20 52 15 164 -6 101 -4 127 8 146 27 41
-11 95 -108 155 -20 12 -37 26 -37 30 0 15 -71 81 -144 135 -66 49 -74 59 -85
102 -20 80 -88 198 -142 249 -55 52 -165 107 -247 124 -62 13 -174 13 -218 0z
m285 -61 c85 -27 99 -35 146 -84 56 -59 82 -102 125 -205 l28 -67 -52 24 c-65
30 -177 54 -286 61 -71 4 -95 2 -145 -16 -81 -29 -105 -27 -165 14 -29 19 -56
35 -61 35 -5 0 -9 19 -9 43 -1 23 -7 53 -15 67 -22 38 -18 46 28 64 24 9 60
34 80 55 21 22 47 42 60 44 48 11 176 -6 266 -35z m-628 22 c55 -16 140 -90
165 -145 29 -62 32 -109 7 -101 -51 15 -124 16 -268 6 -186 -12 -240 -31 -300
-104 -39 -48 -44 -72 -16 -72 10 0 17 5 14 12 -6 17 43 71 92 100 38 22 62 26
197 35 191 13 278 7 333 -25 22 -13 75 -56 117 -96 58 -54 88 -91 118 -148 22
-42 40 -82 40 -89 0 -7 -31 3 -77 25 l-78 37 -273 -3 c-365 -5 -422 -20 -543
-149 -62 -67 -73 -98 -43 -127 18 -19 28 -20 54 -6 18 9 87 -11 100 -30 3 -4
23 -13 45 -20 22 -7 81 -34 130 -61 80 -42 193 -84 370 -135 65 -18 215 -30
215 -17 0 10 4 11 75 15 32 2 39 7 37 21 -4 21 11 22 29 1 11 -14 10 -20 -14
-40 -40 -34 -88 -44 -218 -44 -305 0 -451 37 -565 142 -35 32 -43 36 -53 24
-10 -12 -2 -22 41 -55 132 -99 260 -131 531 -131 l157 0 -16 -25 c-26 -40
-160 -133 -261 -181 -86 -42 -136 -84 -99 -84 8 0 17 4 20 9 4 5 43 27 89 49
111 54 222 134 259 187 18 25 42 46 57 50 83 21 125 90 78 130 -13 11 -32 43
-42 70 -18 49 -38 91 -74 150 -12 21 -37 38 -84 57 -36 14 -94 45 -128 68 -53
36 -72 44 -138 51 -123 15 -313 -6 -383 -42 -20 -10 -53 -32 -71 -49 -19 -16
-38 -26 -42 -22 -5 4 -5 2 -2 -4 7 -13 -39 -64 -57 -64 -7 0 -17 5 -24 12 -9
9 -8 16 5 30 9 10 21 18 28 18 6 0 22 11 35 25 15 16 19 25 10 25 -26 0 22 39
88 71 89 44 190 55 374 42 87 -7 159 -17 182 -27 45 -19 205 -147 269 -215 52
-56 78 -102 84 -151 3 -19 6 -36 8 -38 4 -5 35 59 35 72 0 6 13 39 29 73 21
43 39 67 61 78 17 9 28 20 26 24 -3 4 6 19 19 31 14 13 25 20 25 16 0 -4 -10
-17 -22 -27 l-23 -20 28 17 c15 9 27 23 27 30 0 8 21 28 48 44 l47 31 153 -3
154 -3 39 -45 c40 -47 57 -35 18 14 -39 49 -66 56 -221 56 -136 0 -145 -1
-197 -27 -29 -15 -76 -49 -104 -75 -28 -27 -55 -48 -59 -48 -4 0 -8 -5 -8 -11
0 -6 -8 -8 -18 -5 -16 5 -17 1 -14 -30 3 -28 1 -35 -9 -32 -8 3 -14 18 -15 34
0 16 -6 39 -12 51 -7 12 -12 35 -12 50 0 19 -10 39 -30 58 -22 21 -30 38 -30
62 0 48 -64 168 -117 219 -28 28 -40 45 -31 48 84 23 154 36 191 36 63 0 264
-36 310 -55 59 -25 267 -183 267 -204 0 -4 -47 -5 -104 -3 -115 5 -200 -14
-232 -49 -21 -23 -10 -38 14 -21 56 41 85 47 218 46 129 -1 132 -2 175 -32 24
-16 55 -41 68 -55 22 -24 22 -27 7 -49 -9 -12 -16 -39 -16 -60 0 -48 -13 -48
-34 -3 -46 96 -222 133 -354 75 -63 -28 -157 -110 -193 -168 -22 -35 -59 -129
-59 -150 0 -15 43 -33 90 -36 19 -2 111 -3 203 -4 93 -1 166 -5 164 -9 -3 -5
14 -6 38 -5 58 5 120 57 135 114 14 52 24 42 16 -16 -6 -35 -16 -53 -50 -84
-60 -56 -101 -75 -141 -68 -25 5 -34 3 -39 -10 -9 -23 -7 -24 48 -13 27 5 52
7 55 4 11 -12 -28 -36 -69 -43 -32 -5 -46 -13 -48 -26 -3 -15 0 -17 20 -11 58
18 108 45 108 59 0 18 23 21 51 6 20 -11 59 -79 59 -104 0 -8 12 -28 26 -45
25 -30 25 -31 5 -31 -14 0 -25 -11 -36 -37 -9 -21 -24 -47 -34 -58 -10 -11
-25 -32 -32 -47 -8 -15 -41 -44 -74 -64 -76 -46 -129 -53 -389 -54 -238 0
-545 35 -653 76 -50 19 -83 24 -156 24 -76 0 -103 5 -152 26 -105 45 -168 64
-224 71 -31 3 -65 10 -76 16 -18 10 -18 10 5 19 14 5 35 6 48 3 14 -3 21 -2
18 4 -3 5 0 12 6 14 7 3 -4 6 -25 6 -72 2 -162 -56 -155 -99 l4 -25 12 27 c19
47 32 43 25 -7 l-6 -47 60 -56 c67 -64 210 -141 305 -165 40 -10 72 -27 103
-55 25 -22 75 -54 112 -72 113 -54 181 -61 623 -63 390 -2 396 -2 462 21 37
13 70 28 73 33 10 16 35 10 35 -8 0 -42 -24 -97 -75 -174 -30 -45 -56 -86 -57
-91 -2 -5 -30 -3 -63 6 -185 48 -398 96 -450 101 -106 11 -250 -26 -341 -87
-79 -53 -244 -290 -362 -520 l-45 -88 -213 0 c-117 0 -224 -4 -237 -9 -14 -6
-27 -8 -29 -5 -3 2 -1 32 3 66 4 35 10 313 13 618 3 305 8 681 11 835 3 154 8
442 11 640 4 270 9 366 19 385 22 42 154 161 204 183 33 15 76 22 156 27 181
9 242 9 276 0z m-684 -702 c-1 -62 -3 -12 -3 112 0 124 2 174 3 113 2 -62 2
-164 0 -225z m1012 100 c79 -15 134 -41 186 -89 34 -31 45 -48 41 -62 -3 -11
2 -33 10 -48 7 -15 14 -39 14 -52 0 -14 7 -30 15 -37 15 -12 18 -80 3 -80 -4
0 -8 7 -8 15 0 31 -52 95 -155 191 -122 114 -174 151 -221 160 -19 3 -34 10
-34 15 0 9 60 4 149 -13z m-159 -97 c75 -55 106 -72 161 -87 33 -9 62 -21 66
-27 4 -7 -1 -8 -13 -3 -46 19 -193 27 -384 22 -205 -6 -305 -17 -347 -38 -17
-9 -30 -8 -50 1 l-28 13 48 43 c83 76 205 106 410 101 93 -2 111 -5 137 -25z
m942 -43 c22 -6 58 -28 81 -49 40 -36 41 -38 24 -56 -17 -17 -20 -17 -75 12
-53 28 -66 30 -197 35 -124 4 -137 7 -116 19 82 46 203 63 283 39z m-944 -90
c6 -6 12 -18 12 -28 0 -14 -8 -16 -54 -12 -49 4 -57 2 -79 -22 -31 -33 -40
-33 -33 2 4 17 1 35 -8 47 -9 11 -16 23 -16 27 0 11 163 -2 178 -14z m238 -13
c23 -15 42 -49 78 -139 23 -56 21 -63 -26 -75 -24 -5 -61 -14 -83 -20 -45 -12
-118 -14 -153 -5 -17 5 -21 11 -16 23 4 9 12 47 18 85 8 56 7 76 -6 112 -8 24
-14 45 -12 47 9 9 180 -14 200 -28z m-536 13 c0 -7 -9 -24 -20 -38 -11 -14
-20 -33 -20 -42 0 -26 -16 -29 -35 -8 -10 11 -44 28 -74 36 -75 22 -82 31 -30
39 24 3 71 10 104 14 33 5 63 9 68 10 4 0 7 -5 7 -11z m917 -27 c-40 -44 -57
-93 -57 -162 l0 -46 -40 10 c-40 11 -52 30 -25 41 8 3 12 12 9 20 -6 16 49
114 86 154 11 12 30 22 42 22 18 0 16 -4 -15 -39z m181 23 c20 -6 13 -23 -13
-30 -13 -3 -30 -12 -36 -20 -10 -13 -15 -12 -35 7 -18 17 -21 26 -14 40 8 14
18 17 48 13 20 -3 43 -7 50 -10z m208 -41 c52 -24 94 -48 94 -53 0 -4 -21 -31
-46 -59 -46 -51 -109 -81 -171 -81 -27 0 -28 3 -7 36 24 36 21 125 -5 168 -12
18 -21 37 -21 40 0 14 63 -7 156 -51z m-1196 12 c10 -12 10 -18 0 -30 -17 -21
-47 -19 -59 3 -19 35 33 58 59 27z m874 -27 c8 -14 7 -21 -6 -34 -30 -30 -75
9 -48 42 16 18 39 15 54 -8z m164 -21 c17 -13 15 -42 -4 -61 -39 -40 -111 7
-82 53 19 30 53 34 86 8z m-1114 -41 c-6 -16 -35 -22 -47 -10 -3 4 1 20 9 36
15 29 16 30 30 10 8 -11 11 -27 8 -36z m250 38 c32 -31 11 -64 -40 -64 -22 0
-38 7 -48 22 -14 20 -14 24 1 40 20 22 66 23 87 2z m-165 -32 c19 -35 -24 -57
-50 -26 -11 14 -10 18 6 30 25 18 32 18 44 -4z m879 -49 c2 -15 -3 -23 -19
-28 -27 -9 -52 14 -43 39 10 25 58 17 62 -11z m-808 -3 c28 -22 89 -26 109 -7
11 10 12 7 7 -18 -11 -45 -21 -50 -63 -32 -21 8 -49 18 -63 21 -44 10 -55 21
-39 40 18 20 19 19 49 -4z m915 -30 c22 -8 24 -13 15 -30 -8 -15 -21 -20 -55
-20 -72 0 -79 6 -48 45 21 26 31 32 44 24 10 -5 29 -13 44 -19z m-1668 -282
c-2 -35 -3 -9 -3 57 0 66 1 94 3 63 2 -32 2 -86 0 -120z m2033 -113 c0 -34
-106 -211 -141 -236 -16 -11 -50 -30 -76 -42 -46 -21 -58 -22 -363 -21 -305 0
-355 3 -600 40 -94 15 -390 76 -434 90 -28 9 -64 27 -81 39 -16 12 -44 29 -61
38 -30 16 -31 15 -42 -9 -11 -23 -10 -24 12 -18 16 4 39 -5 77 -28 72 -45 246
-92 459 -123 58 -8 132 -19 165 -25 33 -5 107 -13 165 -17 139 -11 650 -9 675
1 11 5 25 10 30 12 29 7 62 24 82 43 26 24 31 19 39 -44 7 -44 5 -47 -37 -88
-57 -54 -141 -84 -273 -98 -149 -17 -720 5 -821 31 -88 22 -163 59 -229 112
-27 21 -61 41 -75 44 -115 25 -255 94 -331 163 -37 33 -42 42 -30 51 13 8 13
10 -2 10 -21 0 -24 35 -5 54 11 11 19 10 47 -4 20 -11 29 -20 21 -24 -6 -4
-10 -22 -10 -39 1 -24 3 -26 6 -9 2 12 14 27 26 34 12 6 24 14 27 18 7 10 104
-16 155 -40 79 -38 102 -43 222 -50 90 -5 127 -11 140 -23 10 -8 47 -21 83
-27 69 -13 78 -14 180 -25 81 -9 108 -13 140 -19 38 -9 403 -9 500 -1 53 4 96
14 115 25 31 18 88 38 69 23 -6 -4 -13 -16 -17 -26 -7 -17 -6 -17 25 0 32 19
111 131 136 196 17 43 32 48 32 12z m293 -217 c-4 -7 -11 -42 -14 -78 l-6 -65
-1 58 c-2 52 9 97 24 97 3 0 2 -6 -3 -12z m85 -10 c5 -7 34 -65 63 -128 51
-108 54 -120 54 -195 0 -44 4 -86 8 -93 11 -17 57 -5 80 20 14 17 17 18 17 4
0 -9 -9 -34 -19 -55 -13 -25 -16 -42 -10 -52 7 -11 9 -11 9 4 0 10 10 32 23
48 18 25 22 46 25 115 1 46 3 122 5 168 1 46 -1 82 -5 79 -5 -2 -8 -13 -8 -25
0 -17 -2 -18 -15 -8 -9 7 -19 10 -22 6 -6 -6 -13 -91 -22 -278 -1 -26 -21 -22
-21 5 0 18 -2 19 -10 7 -7 -10 -8 22 -5 95 3 61 5 124 5 142 0 24 10 43 38 73
44 46 54 48 82 20 18 -18 20 -33 20 -196 0 -179 -3 -198 -43 -241 -20 -23 -17
-55 5 -51 13 3 47 70 49 97 1 9 5 3 10 -14 6 -23 7 -18 3 18 -5 41 -1 55 19
86 21 32 122 111 141 111 18 0 3 -107 -25 -182 -17 -46 -40 -113 -50 -150 -10
-38 -43 -116 -73 -175 -30 -60 -70 -153 -90 -208 -20 -55 -42 -112 -48 -127
l-10 -27 -147 -3 c-80 -2 -216 -2 -303 0 l-156 3 -41 62 c-81 126 -156 324
-135 359 12 18 44 -25 44 -59 0 -41 16 -43 25 -3 8 37 -2 70 -21 70 -8 0 -12
5 -9 10 4 6 11 8 16 5 5 -4 9 3 9 15 0 12 -3 19 -8 16 -4 -2 -6 14 -4 36 3 30
-1 45 -18 63 -30 32 -24 71 10 67 37 -5 67 -28 98 -74 23 -36 27 -52 27 -113
0 -72 13 -105 40 -105 33 0 221 88 251 117 21 21 34 28 38 20 2 -7 5 -2 5 11
1 13 -4 32 -10 43 -9 17 -17 19 -57 13 -26 -3 -52 -10 -58 -15 -11 -9 -110 -2
-127 8 -14 9 5 24 23 18 10 -3 21 -1 25 5 3 5 13 10 21 10 9 0 12 -5 8 -12 -5
-7 -3 -8 7 -2 20 12 39 14 39 3 0 -6 5 -7 10 -4 19 12 10 33 -17 40 l-28 8 28
10 c15 6 27 15 27 20 0 4 9 5 20 2 23 -7 25 -3 8 28 -7 12 -14 24 -15 25 -1 2
-19 -14 -42 -37 -51 -51 -89 -71 -151 -78 -44 -5 -51 -3 -73 22 l-24 28 46 23
c25 13 74 46 108 74 52 42 68 50 104 50 36 0 47 -6 88 -47 30 -31 52 -64 60
-91 13 -48 31 -47 32 1 0 18 4 41 9 52 7 16 9 12 10 -20 l2 -40 9 40 c7 27 6
41 -1 43 -5 2 -10 19 -10 39 0 19 -9 69 -19 111 -26 102 -33 168 -26 214 6 33
10 38 35 38 15 0 32 -6 38 -12z m133 -117 c-10 -30 -17 -42 -19 -31 -3 16 23
80 32 80 1 0 -5 -22 -13 -49z m227 -154 l27 17 -24 -27 c-31 -35 -47 -34 -45
1 4 50 7 57 11 25 l4 -33 27 17z m-408 -87 c0 -52 -16 -71 -25 -29 -6 26 -9
30 -14 16 -6 -16 -9 -16 -31 8 l-23 25 26 0 c15 0 26 3 26 8 -4 26 5 22 17 -8
l14 -35 -5 40 c-3 28 -2 35 5 25 5 -8 10 -31 10 -50z m-522 -71 c-19 -11 -43
-74 -33 -89 3 -5 1 -10 -4 -10 -22 0 -12 67 15 95 14 15 28 24 32 20 4 -3 -1
-11 -10 -16z m-468 -18 c41 -12 127 -32 190 -45 63 -14 129 -30 147 -36 17 -6
53 -15 80 -18 45 -7 48 -9 51 -39 5 -51 -12 -73 -58 -73 -22 0 -44 6 -50 13
-5 6 -19 23 -29 37 -20 25 -20 25 -35 5 -13 -17 -17 -18 -25 -5 -5 8 -7 19 -4
25 4 6 2 6 -6 -1 -9 -8 -9 -18 -1 -38 5 -15 10 -42 10 -60 0 -18 6 -40 13 -50
16 -22 10 -97 -7 -90 -12 5 -29 79 -42 181 -5 42 -12 58 -36 78 -16 14 -34 23
-39 19 -14 -8 -11 -34 4 -34 28 0 44 -37 57 -125 7 -49 17 -101 22 -115 5 -13
6 -21 2 -18 -3 4 -20 0 -36 -8 -29 -15 -30 -15 -23 4 3 11 1 23 -4 27 -7 3 -8
0 -5 -9 4 -9 0 -18 -9 -22 -9 -3 -13 -12 -10 -21 4 -10 2 -14 -5 -9 -6 3 -13
2 -17 -4 -3 -5 -1 -10 5 -10 7 0 9 -7 6 -16 -4 -11 2 -10 25 7 17 12 33 28 36
35 6 17 60 18 66 2 5 -16 47 50 47 75 0 9 -5 17 -12 17 -6 0 -9 2 -6 5 3 3 1
27 -3 52 -11 58 -4 89 17 72 7 -6 12 -15 9 -19 -2 -4 4 -36 14 -71 23 -84 14
-119 -41 -159 -44 -32 -68 -40 -48 -15 26 31 2 24 -33 -9 -35 -33 -129 -76
-165 -76 -21 0 -79 59 -110 111 l-22 36 30 28 c37 35 63 30 117 -25 40 -39 40
-40 59 -19 22 24 27 49 9 49 -7 0 -27 16 -44 36 -17 19 -35 32 -40 29 -20 -12
-168 -6 -208 8 -24 8 -43 13 -43 12 0 -2 -3 -10 -6 -18 -4 -11 7 -18 46 -26
28 -6 65 -11 82 -11 l32 0 -29 -30 c-26 -27 -27 -32 -16 -57 7 -15 26 -44 42
-65 17 -21 29 -38 27 -38 -2 0 -26 8 -53 19 -162 61 -252 109 -260 138 -3 13
-12 23 -19 23 -14 0 -103 -130 -166 -243 l-32 -57 -160 0 -160 0 18 28 c10 15
38 63 63 107 112 201 261 404 335 454 119 82 276 100 456 52z m783 -147 c20
-3 37 -10 37 -16 0 -5 16 0 36 11 48 29 56 18 16 -22 -32 -31 -34 -32 -138
-35 l-105 -4 6 25 c4 14 2 28 -4 31 -39 24 33 29 152 10z m-387 -145 c16 -53
18 -128 3 -166 -7 -20 -7 -25 1 -17 6 6 14 30 19 55 l9 44 1 -41 c1 -46 -27
-93 -57 -93 -9 0 -45 -8 -79 -17 -59 -16 -93 -14 -93 4 0 4 24 14 53 22 75 19
96 30 90 47 -5 12 -2 13 13 5 18 -9 19 -5 22 59 3 52 -1 79 -17 115 -26 58
-26 60 1 42 11 -8 27 -34 34 -59z m398 63 c3 -5 -10 -16 -29 -25 -37 -18 -46
-9 -19 17 17 17 40 21 48 8z m-74 -31 c0 -33 -68 -42 -87 -12 -10 16 -9 19 5
17 9 -2 28 1 42 5 38 11 40 11 40 -10z m-1068 -129 c6 -22 88 -69 176 -101 34
-13 62 -27 62 -31 0 -10 -54 -82 -77 -103 -18 -15 -39 -17 -183 -15 l-163 3
26 25 c15 14 27 31 27 38 0 7 5 10 12 6 7 -4 8 -3 4 4 -4 6 16 47 44 91 27 45
50 85 50 91 0 17 17 11 22 -8z m534 -147 c-3 -8 -1 -15 4 -15 6 0 10 -6 10
-12 -1 -43 -54 -56 -117 -28 -24 11 -43 21 -43 23 0 3 23 4 51 4 42 -2 54 2
68 20 18 25 36 30 27 8z"/>
<path d="M126 2548 c-4 -29 -8 -280 -11 -558 -3 -302 -9 -519 -15 -540 -18
-60 -11 -67 25 -26 31 35 33 40 18 51 -10 7 -13 17 -8 25 6 10 10 10 19 -2 15
-20 45 -18 52 4 6 19 54 26 54 8 0 -5 8 -10 18 -10 11 0 13 3 6 8 -7 4 -13 16
-16 27 -6 29 -57 22 -85 -12 -19 -24 -23 -25 -29 -10 -3 9 -3 28 0 42 4 14 2
25 -4 25 -6 0 -10 73 -10 205 1 124 5 205 10 205 6 0 10 -4 10 -10 0 -5 5 -10
10 -10 7 0 7 6 0 20 -17 33 5 92 56 149 26 29 60 59 76 67 17 9 27 18 24 21
-16 17 -148 -97 -162 -139 -16 -52 -21 7 -19 247 1 250 -6 331 -19 213z"/>
<path d="M345 2563 c-27 -7 -95 -81 -95 -104 0 -28 6 -24 31 21 13 22 25 40
28 40 3 1 20 12 36 25 17 14 28 24 25 24 -3 -1 -14 -4 -25 -6z"/>
<path d="M1492 2210 c-12 -12 -22 -28 -22 -38 0 -9 -20 -39 -45 -66 -45 -48
-54 -69 -35 -81 6 -3 10 2 10 12 0 11 20 39 45 63 31 30 45 52 45 71 0 16 9
33 23 42 12 9 17 16 11 16 -5 1 -20 -8 -32 -19z"/>
<path d="M1324 1748 c-4 -5 -1 -14 6 -18 7 -4 9 -16 5 -29 -3 -12 -10 -19 -15
-16 -4 3 -10 -4 -13 -14 -7 -28 28 -15 42 15 6 13 15 24 21 24 13 0 -10 38
-27 44 -7 3 -15 0 -19 -6z"/>
<path d="M1754 1671 c-40 -49 -40 -121 -1 -121 6 0 2 6 -9 14 -16 13 -17 18
-6 35 6 12 12 28 12 38 0 9 7 25 17 35 9 10 14 20 12 22 -2 2 -14 -8 -25 -23z"/>
<path d="M1375 1670 c-4 -6 -5 -12 -4 -14 2 -1 26 -13 54 -26 76 -38 160 -104
202 -159 21 -27 45 -50 53 -50 22 0 53 26 41 34 -6 3 -11 1 -11 -4 0 -20 -30
-11 -39 12 -10 27 -77 90 -144 136 -27 18 -46 35 -44 38 3 2 26 -3 51 -11 26
-9 51 -16 57 -16 6 0 17 -7 25 -15 17 -17 44 -20 44 -5 0 5 -5 9 -12 7 -7 -1
-17 8 -22 19 -10 22 -14 23 -156 43 -30 4 -62 11 -71 15 -10 4 -20 2 -24 -4z"/>
<path d="M1075 1608 c-16 -6 -36 -17 -43 -25 -8 -7 -30 -22 -51 -33 -47 -26
-76 -48 -69 -55 3 -3 13 1 21 10 9 8 20 15 25 15 6 0 12 4 14 8 2 4 32 23 68
41 91 46 108 65 35 39z"/>
<path d="M1939 1452 c-46 -88 -104 -172 -122 -178 -10 -3 -16 -8 -14 -11 23
-22 122 93 161 189 23 54 4 54 -25 0z"/>
<path d="M747 1422 c-10 -10 -17 -27 -17 -38 0 -14 5 -10 16 13 9 18 23 34 32
36 15 4 15 5 1 6 -9 0 -23 -7 -32 -17z"/>
<path d="M99 994 c-1 -175 -4 -439 -8 -586 -5 -225 -4 -265 8 -254 15 16 18
120 21 691 2 308 -3 450 -16 464 -2 2 -5 -139 -5 -315z"/>
<path d="M1867 893 c-34 -35 -99 -119 -113 -145 -10 -19 -11 -34 -5 -50 10
-22 10 -23 10 -1 1 11 30 60 66 108 57 77 74 105 62 105 -2 0 -11 -8 -20 -17z"/>
<path d="M901 735 c-46 -16 -140 -119 -228 -250 -66 -98 -190 -312 -197 -340
-7 -26 -6 -25 22 7 15 18 61 91 101 163 41 72 112 181 159 244 76 100 108 133
178 178 24 15 9 14 -35 -2z"/>
<path d="M1933 1090 c-13 -11 -23 -25 -23 -31 0 -5 -16 -24 -35 -41 -48 -42
-37 -47 19 -9 48 33 69 62 64 87 -2 13 -7 11 -25 -6z"/>
<path d="M2409 1143 c6 -12 11 -42 11 -67 0 -28 5 -46 11 -46 18 0 5 99 -16
118 -16 16 -17 16 -6 -5z"/>
<path d="M2527 903 c-11 -10 -8 -96 3 -113 7 -11 10 5 10 53 0 67 -1 73 -13
60z"/>
<path d="M2897 868 c-8 -12 -21 -38 -28 -55 -8 -19 -21 -33 -31 -33 -11 0 -20
-10 -24 -27 -3 -16 -10 -41 -15 -57 -6 -18 -6 -33 0 -39 12 -12 -6 -62 -69
-189 -79 -159 -142 -322 -138 -360 3 -33 3 -33 21 17 49 134 113 287 147 351
20 38 47 101 60 140 12 38 40 113 62 167 38 96 45 133 15 85z"/>
<path d="M2472 808 c1 -18 -1 -51 -6 -73 -7 -36 -6 -39 8 -25 33 32 38 118 8
128 -8 2 -11 -7 -10 -30z"/>
<path d="M1945 557 c0 -29 5 -58 12 -65 7 -7 13 -21 14 -30 2 -27 17 29 18 66
1 17 -4 32 -10 32 -5 0 -8 3 -6 8 3 4 -3 14 -12 24 -15 15 -16 12 -16 -35z"/>
<path d="M1581 478 c0 -27 4 -48 9 -48 11 0 11 21 0 65 -7 27 -8 25 -9 -17z"/>
<path d="M988 389 c-30 -17 -168 -236 -168 -266 l0 -28 18 33 c30 58 140 226
162 250 22 23 17 28 -12 11z"/>
<path d="M1280 351 c-5 -11 -10 -28 -9 -38 0 -14 3 -12 10 6 5 13 17 30 27 37
16 13 16 13 0 14 -10 0 -22 -9 -28 -19z"/>
<path d="M1211 169 c-18 -16 -31 -33 -28 -36 5 -5 97 56 97 64 0 14 -42 -3
-69 -28z"/>
</g>
</svg>
